<?xml version="1.0" standalone="no"?>
<!DOCTYPE svg PUBLIC "-//W3C//DTD SVG 20010904//EN"
 "http://www.w3.org/TR/2001/REC-SVG-20010904/DTD/svg10.dtd">
<svg version="1.0" xmlns="http://www.w3.org/2000/svg"
 width="372.000000pt" height="372.000000pt" viewBox="0 0 372.000000 372.000000"
 preserveAspectRatio="xMidYMid meet">
<metadata>
Created by potrace 1.14, written by Peter Selinger 2001-2017
</metadata>
<g transform="translate(0.000000,372.000000) scale(0.100000,-0.100000)"
fill="#000000" stroke="none">
<path d="M40 3641 c-14 -1 -28 -8 -32 -15 -4 -6 -8 -804 -8 -1772 0 -1398 3
-1763 12 -1771 20 -15 3674 -11 3689 4 16 16 17 3529 1 3545 -8 8 -512 11
-1824 12 -997 1 -1824 -1 -1838 -3z m1498 -134 c220 -3 275 -6 286 -18 7 -8
48 -81 91 -164 43 -82 104 -199 135 -260 32 -60 86 -164 120 -230 34 -66 82
-156 105 -200 23 -44 78 -147 121 -230 129 -248 208 -399 220 -418 10 -18 37
-19 480 -19 296 0 474 -4 482 -10 9 -8 12 -90 12 -348 0 -186 -3 -345 -6 -354
-3 -9 -13 -16 -22 -16 -9 0 -95 78 -192 174 -206 204 -194 199 -390 183 -47
-4 -98 -9 -115 -11 -16 -2 -61 -7 -100 -10 -122 -11 -179 -17 -215 -21 -19 -3
-69 -7 -110 -10 -41 -3 -84 -8 -95 -10 -11 -2 -25 -4 -32 -4 -46 -3 -55 -89
-13 -123 20 -16 35 -18 109 -13 47 4 111 8 141 10 99 7 204 15 250 20 25 2 74
7 110 10 36 3 84 8 108 11 80 8 119 -19 322 -224 l185 -186 1 -300 c1 -165 0
-306 -3 -313 -9 -24 -34 -14 -163 66 -148 92 -174 106 -249 134 -53 20 -80 22
-530 27 l-473 5 -38 66 c-21 37 -61 111 -90 165 -29 55 -60 113 -70 129 -10
17 -34 62 -55 100 -21 39 -50 93 -65 120 -15 28 -71 131 -125 230 -54 99 -106
194 -116 211 -10 18 -41 76 -70 130 -29 55 -55 104 -60 109 -8 11 -12 39 -10
68 1 23 46 40 70 28 10 -6 39 -52 66 -103 26 -51 85 -154 130 -228 72 -118
215 -368 215 -375 0 -13 136 -234 153 -248 19 -17 35 -18 187 -12 91 4 194 8
230 10 36 2 137 7 225 10 268 11 289 13 317 24 16 6 30 21 34 36 8 32 -12 82
-36 90 -10 3 -67 3 -127 0 -59 -3 -153 -7 -208 -9 -55 -3 -170 -7 -255 -11
-85 -4 -178 -8 -206 -10 -28 -1 -56 0 -61 4 -9 5 -341 554 -491 811 -70 121
-94 150 -125 151 -113 6 -196 -31 -233 -104 -10 -18 -16 -57 -17 -94 -1 -76
-11 -54 317 -653 131 -239 256 -469 279 -510 39 -73 85 -159 134 -250 43 -78
-1 -72 534 -75 575 -3 523 7 787 -155 94 -58 169 -106 168 -108 -2 -1 -369 -3
-816 -4 -790 -1 -813 -1 -824 18 -11 19 -36 66 -228 429 -55 105 -120 226
-143 270 -23 44 -70 134 -105 200 -34 66 -75 143 -90 170 -34 63 -101 188
-175 330 -32 61 -82 156 -112 213 l-55 103 -247 -6 c-596 -15 -560 -16 -569 3
-6 13 -9 608 -3 632 0 2 72 -66 159 -152 86 -85 173 -164 192 -174 40 -21 131
-24 295 -10 55 4 118 10 140 11 22 2 76 6 120 10 44 5 96 9 115 10 34 2 141
11 245 21 61 5 75 21 75 86 0 82 -33 88 -315 63 -22 -2 -80 -7 -130 -10 -49
-3 -106 -8 -125 -10 -19 -2 -80 -6 -135 -10 -55 -3 -121 -8 -147 -11 -32 -4
-57 -1 -80 10 -18 9 -113 96 -210 194 l-178 178 -1 99 c-1 55 -2 127 -4 160
-16 344 -16 363 5 370 23 7 18 10 148 -77 102 -69 198 -111 285 -123 23 -4
246 -7 495 -7 l453 0 24 -37 c12 -20 152 -270 310 -556 158 -286 312 -563 342
-615 65 -115 71 -135 48 -160 -26 -29 -51 -25 -78 13 -13 17 -146 237 -296
488 -300 502 -273 469 -376 464 -27 -1 -115 -6 -195 -10 -80 -4 -172 -8 -205
-10 -33 -2 -123 -6 -200 -9 -224 -10 -255 -18 -255 -66 0 -65 37 -99 105 -94
17 1 98 5 180 8 83 4 173 9 200 11 28 2 120 7 205 10 85 3 162 8 172 11 22 6
19 10 283 -441 345 -591 314 -548 392 -547 136 3 215 73 215 191 0 67 -18 120
-76 220 -24 42 -97 175 -163 296 -66 121 -145 265 -175 320 -30 55 -77 141
-103 190 -104 194 -247 450 -254 458 -4 4 -228 9 -497 11 -480 4 -490 4 -549
26 -33 13 -84 38 -113 56 -29 19 -57 34 -62 34 -16 0 -29 33 -19 51 9 17 53
18 1147 6z m1180 6 c12 -3 22 -13 22 -23 0 -10 -53 -67 -117 -126 -64 -60
-151 -141 -192 -181 -124 -116 -186 -172 -191 -173 -20 0 -37 29 -183 310 -62
120 -83 169 -77 181 8 14 50 16 362 16 194 1 363 -1 376 -4z m709 -5 c15 -12
6 -37 -21 -61 -67 -59 -155 -137 -195 -173 -25 -22 -134 -118 -241 -213 -107
-95 -244 -216 -304 -269 -60 -54 -130 -116 -155 -139 -56 -52 -79 -52 -106 2
-11 22 -42 80 -67 130 l-48 90 88 85 c48 47 123 119 167 160 45 41 139 130
210 197 72 67 149 139 172 161 l43 39 222 0 c126 0 228 -4 235 -9z m163 -373
c0 -249 0 -254 -22 -278 -13 -14 -160 -137 -328 -273 -168 -137 -307 -251
-310 -254 -10 -11 -215 -176 -228 -184 -12 -7 -52 18 -52 34 0 3 -34 71 -75
150 l-74 143 37 36 c42 41 91 84 207 186 44 39 82 72 85 75 3 3 106 95 230
204 349 308 363 320 374 331 99 91 118 104 137 95 18 -10 19 -25 19 -265z m0
-749 c0 -219 -3 -276 -14 -285 -9 -8 -108 -11 -341 -9 -298 3 -329 5 -339 20
-13 21 -35 1 363 327 248 202 297 239 312 230 18 -9 19 -27 19 -283z m-2802
-610 c4 -18 -2 -25 -139 -146 -40 -36 -77 -70 -83 -75 -6 -6 -100 -90 -208
-188 -133 -118 -202 -175 -213 -171 -8 4 -16 9 -16 13 -1 3 -2 129 -3 280 -1
216 2 277 12 288 9 9 42 13 100 14 173 1 486 10 490 13 9 10 57 -13 60 -28z
m180 -151 c99 -175 151 -289 140 -302 -6 -8 -113 -98 -237 -201 -124 -103
-333 -276 -464 -384 -131 -109 -244 -198 -252 -198 -27 0 -32 36 -30 243 l1
208 44 40 c25 22 76 68 114 102 38 34 77 69 86 77 23 20 176 158 210 190 15
14 62 57 105 95 44 39 99 89 124 112 77 69 95 83 111 80 8 -1 29 -29 48 -62z
m230 -437 c16 -20 152 -284 152 -295 0 -5 -185 -164 -410 -352 l-411 -343
-189 0 c-123 -1 -194 3 -203 10 -10 9 -16 92 -8 133 0 4 126 109 279 235 152
125 279 231 282 234 3 3 68 57 145 120 77 63 142 117 145 120 23 26 184 150
194 150 8 0 18 -6 24 -12z m365 -687 c75 -142 137 -266 137 -274 0 -9 -5 -19
-11 -23 -19 -11 -889 -8 -900 3 -6 6 -9 18 -7 27 4 20 608 525 629 526 10 0
62 -89 152 -259z"/>
</g>
</svg>
